<svg width="24" height="24" viewBox="0 0 24 24" fill="none" xmlns="http://www.w3.org/2000/svg">
    <path fill-rule="evenodd" clip-rule="evenodd" d="M12.3701 5H17.9961V8.97348H12.3701L12.3701 5ZM11.3701 5H6V8.97348H11.3701L11.3701 5ZM11.3701 9.97348H6V14.3069H11.3701V9.97348ZM11.3701 15.3069H6V19H11.3701L11.3701 15.3069ZM12.3701 19L12.3701 15.3069H17.9961V19H12.3701ZM12.3701 14.3069V9.97348H17.9961V14.3069H12.3701ZM5 5C5 4.44772 5.44772 4 6 4H17.9961C18.5484 4 18.9961 4.44772 18.9961 5V19C18.9961 19.5523 18.5484 20 17.9961 20H6C5.44772 20 5 19.5523 5 19V5ZM14.8311 5.81601C14.5549 5.81601 14.3311 6.03987 14.3311 6.31601C14.3311 6.59215 14.5549 6.81601 14.8311 6.81601H15.6972C15.9733 6.81601 16.1972 6.59215 16.1972 6.31601C16.1972 6.03987 15.9733 5.81601 15.6972 5.81601H14.8311ZM14.3311 16.6413C14.3311 16.3652 14.5549 16.1413 14.8311 16.1413H15.6972C15.9733 16.1413 16.1972 16.3652 16.1972 16.6413C16.1972 16.9175 15.9733 17.1413 15.6972 17.1413H14.8311C14.5549 17.1413 14.3311 16.9175 14.3311 16.6413ZM8.29932 5.81601C8.02317 5.81601 7.79932 6.03987 7.79932 6.31601C7.79932 6.59215 8.02317 6.81601 8.29932 6.81601H9.16546C9.4416 6.81601 9.66546 6.59215 9.66546 6.31601C9.66546 6.03987 9.4416 5.81601 9.16546 5.81601H8.29932ZM7.79932 16.6413C7.79932 16.3652 8.02317 16.1413 8.29932 16.1413H9.16546C9.4416 16.1413 9.66546 16.3652 9.66546 16.6413C9.66546 16.9175 9.4416 17.1413 9.16546 17.1413H8.29932C8.02317 17.1413 7.79932 16.9175 7.79932 16.6413ZM14.8311 10.5093C14.5549 10.5093 14.3311 10.7332 14.3311 11.0093C14.3311 11.2855 14.5549 11.5093 14.8311 11.5093H15.6972C15.9733 11.5093 16.1972 11.2855 16.1972 11.0093C16.1972 10.7332 15.9733 10.5093 15.6972 10.5093H14.8311ZM7.79932 11.0093C7.79932 10.7332 8.02317 10.5093 8.29932 10.5093H9.16546C9.4416 10.5093 9.66546 10.7332 9.66546 11.0093C9.66546 11.2855 9.4416 11.5093 9.16546 11.5093H8.29932C8.02317 11.5093 7.79932 11.2855 7.79932 11.0093Z" fill="#E54371"></path>
</svg>